<?xml version="1.0" encoding="UTF-8"?><svg id="Layer_2" xmlns="http://www.w3.org/2000/svg" xmlns:xlink="http://www.w3.org/1999/xlink" viewBox="0 0 448.97 440.8"><defs><style>.cls-1{fill:url(#linear-gradient);}.cls-2{fill:#fff;}.cls-3{fill:url(#linear-gradient-8);}.cls-4{fill:url(#linear-gradient-9);}.cls-5{fill:url(#linear-gradient-3);}.cls-6{fill:url(#linear-gradient-4);}.cls-7{fill:url(#linear-gradient-2);}.cls-8{fill:url(#linear-gradient-6);}.cls-9{fill:url(#linear-gradient-7);}.cls-10{fill:url(#linear-gradient-5);}.cls-11{fill:url(#linear-gradient-14);}.cls-12{fill:url(#linear-gradient-15);}.cls-13{fill:url(#linear-gradient-16);}.cls-14{fill:url(#linear-gradient-13);}.cls-15{fill:url(#linear-gradient-12);}.cls-16{fill:url(#linear-gradient-10);}.cls-17{fill:url(#linear-gradient-11);}</style><linearGradient id="linear-gradient" x1="359.57" y1="128.78" x2="325.16" y2="214.52" gradientUnits="userSpaceOnUse"><stop offset="0" stop-color="#fff" stop-opacity="0"/><stop offset="0" stop-color="#fff" stop-opacity=".02"/><stop offset=".05" stop-color="#fff" stop-opacity=".2"/><stop offset=".1" stop-color="#fff" stop-opacity=".37"/><stop offset=".15" stop-color="#fff" stop-opacity=".52"/><stop offset=".21" stop-color="#fff" stop-opacity=".65"/><stop offset=".27" stop-color="#fff" stop-opacity=".76"/><stop offset=".34" stop-color="#fff" stop-opacity=".85"/><stop offset=".42" stop-color="#fff" stop-opacity=".92"/><stop offset=".52" stop-color="#fff" stop-opacity=".96"/><stop offset=".65" stop-color="#fff" stop-opacity=".99"/><stop offset="1" stop-color="#fff"/></linearGradient><linearGradient id="linear-gradient-2" x1="295.11" y1="102.91" x2="260.7" y2="188.65" xlink:href="#linear-gradient"/><linearGradient id="linear-gradient-3" x1="327.9" y1="116.07" x2="293.49" y2="201.81" xlink:href="#linear-gradient"/><linearGradient id="linear-gradient-4" x1="289.1" y1="20.44" x2="318.71" y2="20.44" gradientTransform="translate(1.94 -2.77)" xlink:href="#linear-gradient"/><linearGradient id="linear-gradient-5" x1="257.89" y1="60.96" x2="336.41" y2="60.96" gradientTransform="translate(1.94 -2.77)" xlink:href="#linear-gradient"/><linearGradient id="linear-gradient-6" x1="222.55" y1="105.37" x2="356.45" y2="105.37" gradientTransform="translate(1.94 -2.77)" xlink:href="#linear-gradient"/><linearGradient id="linear-gradient-7" x1="138.1" y1="12.93" x2="192.25" y2="-5.68" xlink:href="#linear-gradient"/><linearGradient id="linear-gradient-8" x1="147.71" y1="40.9" x2="201.86" y2="22.28" xlink:href="#linear-gradient"/><linearGradient id="linear-gradient-9" x1="158.07" y1="71.02" x2="212.22" y2="52.41" xlink:href="#linear-gradient"/><linearGradient id="linear-gradient-10" x1="101.32" y1="171.32" x2="101.32" y2="101.18" xlink:href="#linear-gradient"/><linearGradient id="linear-gradient-11" x1="129.25" y1="171.32" x2="129.25" y2="101.18" xlink:href="#linear-gradient"/><linearGradient id="linear-gradient-12" x1="158.42" y1="171.32" x2="158.42" y2="101.18" xlink:href="#linear-gradient"/><linearGradient id="linear-gradient-13" x1="343.33" y1="119.62" x2="343.64" y2="119.62" gradientTransform="translate(1.94 -2.77)" xlink:href="#linear-gradient"/><linearGradient id="linear-gradient-14" x1="242.98" y1="256.88" x2="173.18" y2="236.57" xlink:href="#linear-gradient"/><linearGradient id="linear-gradient-15" x1="252.21" y1="225.16" x2="182.4" y2="204.85" xlink:href="#linear-gradient"/><linearGradient id="linear-gradient-16" x1="261.4" y1="193.56" x2="191.6" y2="173.25" xlink:href="#linear-gradient"/></defs><g id="Layer_1-2"><g><g><path class="cls-2" d="M123.92,415.02c3.18,0,6.32,1.22,8.65,3.31l1.88-2.37c-2.73-2.41-6.57-3.91-10.52-3.91-8.4,0-15.05,6.32-15.05,14.36s6.61,14.4,14.89,14.4c3.83,0,7.79-1.47,10.6-3.71v-10.36h-2.9v8.69c-2.2,1.51-4.93,2.41-7.5,2.41-6.53,0-11.79-5.06-11.79-11.42s5.22-11.38,11.75-11.38Z"/><path class="cls-2" d="M184.88,421.71c0-6.08-4.12-9.58-11.26-9.58h-10.85v28.55h3.26v-9.06h7.59c.65,0,1.26-.04,1.84-.08l5.99,9.14h3.71l-6.73-9.75c4.12-1.3,6.44-4.53,6.44-9.22Zm-11.26,6.89h-7.59v-13.46h7.59c5.18,0,8.12,2.28,8.12,6.65s-2.94,6.81-8.12,6.81Z"/><path class="cls-2" d="M225.04,412.05c-8.36,0-14.97,6.32-14.97,14.36s6.61,14.4,14.97,14.4,14.93-6.36,14.93-14.4-6.61-14.36-14.93-14.36Zm0,25.78c-6.36,0-11.67-5.1-11.67-11.42s5.3-11.34,11.67-11.34,11.58,5.02,11.58,11.34-5.22,11.42-11.58,11.42Z"/><path class="cls-2" d="M286.48,428.93c0,5.63-3.26,8.89-8.69,8.89s-8.77-3.26-8.77-8.89v-16.8h-3.26v16.8c0,7.47,4.53,11.87,12.03,11.87s11.95-4.4,11.95-11.87v-16.8h-3.26v16.8Z"/><path class="cls-2" d="M328.96,412.13h-10.73v28.55h3.26v-9.06h7.46c7.06,0,11.14-3.63,11.14-9.91s-4.08-9.58-11.14-9.58Zm-.12,16.48h-7.34v-13.46h7.34c5.14,0,8.11,2.28,8.11,6.65s-2.98,6.81-8.11,6.81Z"/><polygon class="cls-2" points="7.93 308.69 0 308.69 0 369.34 7.93 357.52 7.93 308.69"/><polygon class="cls-2" points="45.71 308.69 21.86 343.93 21.87 343.94 0 376.51 0 383.02 4.87 383.02 55.1 308.69 45.71 308.69"/><polygon class="cls-2" points="28.62 355.14 47.53 383.02 57.02 383.02 33.38 348.05 28.62 355.14"/><polygon class="cls-2" points="126.44 374.68 80.86 374.68 80.86 349.47 117.75 349.47 117.75 341.44 115.95 341.44 80.86 341.44 79.5 341.44 72.93 341.44 72.93 382.62 80.33 382.62 80.86 382.62 126.44 382.62 126.44 374.68"/><polygon class="cls-2" points="80.86 316.23 125.63 316.23 125.63 308.29 80.86 308.29 80.33 308.29 72.93 308.29 72.93 336.89 80.86 336.89 80.86 316.23"/><path class="cls-2" d="M286.16,361.08c2.01-4.61,3.03-9.91,3.03-15.72s-1.02-11.12-3.03-15.77c-2.01-4.66-4.82-8.63-8.33-11.79-3.49-3.14-7.59-5.55-12.17-7.18-4.55-1.61-9.41-2.43-14.44-2.43h-13.47v8.04h13.47c8.34,0,15.49,2.54,21.23,7.51,5.8,5.28,8.61,12.36,8.61,21.61s-2.9,16.4-8.58,21.58c-5.77,5.01-12.92,7.55-21.26,7.55h-13.47v8.04h13.47c5.04,0,9.9-.82,14.44-2.43,4.58-1.62,8.68-4.06,12.18-7.23,3.51-3.19,6.31-7.16,8.32-11.78Z"/><rect class="cls-2" x="225.27" y="308.19" width="7.94" height="74.33"/><polygon class="cls-2" points="315.74 356.45 315.07 356.45 307.11 356.45 295.22 382.52 304.03 382.52 312.29 364.13 350.31 364.13 358.6 382.52 367.4 382.52 355.52 356.45 315.74 356.45"/><polygon class="cls-2" points="331.33 321.77 344.86 351.9 353.45 351.9 333.53 308.19 329.08 308.19 328.21 310.16 328.21 310.16 309.18 351.9 317.79 351.9 331.33 321.77"/><polygon class="cls-2" points="384.85 308.69 384.85 315.51 436.49 374.1 436.49 361.99 389.58 308.69 384.85 308.69"/><polygon class="cls-2" points="441.04 308.69 441.04 338.44 441.04 379.26 444.22 383.02 448.97 383.02 448.97 308.69 441.04 308.69"/><polygon class="cls-2" points="384.85 383.02 392.79 383.02 392.79 331.35 384.85 322.22 384.85 383.02"/><polygon class="cls-2" points="142.93 308.69 142.93 315.29 147.4 320.59 194.57 374.1 194.57 361.99 147.66 308.69 142.93 308.69"/><polygon class="cls-2" points="199.12 338.44 199.12 379.26 202.3 383.02 207.05 383.02 207.05 308.69 199.12 308.69 199.12 338.44"/><polygon class="cls-2" points="142.93 383.02 150.86 383.02 150.86 330.97 142.93 321.58 142.93 383.02"/></g><g><g><polygon class="cls-1" points="340.96 147.06 329.45 183.1 358.39 159.81 358.39 159.81 340.96 147.06"/><polygon class="cls-7" points="277.67 101 258.89 159.81 250.39 186.41 245.77 200.88 238.56 223.43 233.94 237.91 224.39 267.8 258.03 240.67 297.91 115.78 277.67 101"/><polygon class="cls-5" points="309.8 124.4 278.13 224.49 309.22 199.41 328.72 138.16 309.8 124.4"/></g><g><polygon class="cls-6" points="309.93 0 291.04 13.76 320.65 35.34 309.93 0"/><polygon class="cls-10" points="327.57 58.16 278.84 22.65 259.83 36.5 338.35 93.72 327.57 58.16"/><polygon class="cls-8" points="345.46 117.16 345.27 116.54 333.49 107.96 247.63 45.39 224.49 62.25 277.67 101 358.39 159.81 345.46 117.16"/></g><g><polygon class="cls-9" points="139.04 0 146.28 22.73 177.44 0 139.04 0"/><polygon class="cls-3" points="201.81 0 150.88 37.16 158.05 59.65 239.79 0 201.81 0"/><polygon class="cls-4" points="272.16 0 264.16 0 255.97 5.98 162.64 74.08 171.24 101.05 224.49 62.25 247.63 45.39 259.83 36.5 278.84 22.65 291.04 13.76 309.93 0 272.16 0"/></g><g><polygon class="cls-16" points="90.58 159.81 90.58 159.81 112.06 159.81 101.04 125.31 90.58 159.81"/><polygon class="cls-17" points="108.3 101.37 126.97 159.81 150.19 159.81 119.61 64.07 108.3 101.37"/><polygon class="cls-15" points="171.24 101.05 162.64 74.08 158.05 59.65 150.88 37.16 146.28 22.73 139.04 0 128.13 35.98 126.87 40.13 130.64 51.93 165.1 159.81 189.96 159.81 171.24 101.05"/></g><polygon class="cls-14" points="345.27 116.54 345.46 117.16 345.58 116.77 345.27 116.54"/><g><polygon class="cls-11" points="224.36 267.8 224.38 267.81 224.39 267.8 233.94 237.91 187.37 237.94 224.36 267.8"/><polygon class="cls-12" points="169.46 223.48 238.56 223.43 245.77 200.88 141.56 200.96 169.46 223.48"/><polygon class="cls-13" points="189.96 159.81 150.19 159.81 112.06 159.81 90.58 159.81 123.65 186.5 250.39 186.41 258.89 159.81 189.96 159.81"/></g></g></g></g></svg>